# xmcd
#
# Track frame offsets:
#	150
#	19804
#	32596
#	50866
#	68608
#	87304
#	97433
#	110630
#	123404
#	142403
#	154679
#	168734
#
# Disc length: 2417 seconds
#
# Revision: 0
# Processed by: cddbd v1.5.2PL0 Copyright (c) Steve Scherf et al.
# Submitted via: audiograbber 1.83.01
#
DISCID=b3096f0c
DTITLE=Bobby Bare - Hard Time Hungrys
DYEAR=1975
DGENRE=Country
TTITLE0=Hard Time Hungrys
TTITLE1=The Farmer Feeds Us All
TTITLE2=Alimony
TTITLE3=Two For A Dollar
TTITLE4=Back Home In Huntsville Again
TTITLE5=Daddy´s Been Around The House Too Long
TTITLE6=Warm And Free
TTITLE7=Able Bodied Man
TTITLE8=$100.000 In Pennies
TTITLE9=Bottles And Boxes
TTITLE10=Truck Driver, Truck Driver
TTITLE11=The Unemployment Line
EXTD=
EXTT0=
EXTT1=
EXTT2=
EXTT3=
EXTT4=
EXTT5=
EXTT6=
EXTT7=
EXTT8=
EXTT9=
EXTT10=
EXTT11=
PLAYORDER=
